<svg width="228" height="228" viewBox="0 0 228 228" fill="none" xmlns="http://www.w3.org/2000/svg">
<path d="M114 228C177 228 228 177 228 114C228 51 177 0 114 0C51 0 0 51 0 114C0 177 51 228 114 228Z" fill="url(#paint0_linear_434_41)"/>
<path fill-rule="evenodd" clip-rule="evenodd" d="M113.5 45C125.9 45 136 34.9 136 22.5C136 10.1 125.9 0 113.5 0C101.1 0 91 10.1 91 22.5C91 34.9 101.1 45 113.5 45ZM113 35C119.6 35 125 29.6 125 23C125 16.4 119.6 11 113 11C106.4 11 101 16.4 101 23C101 29.6 106.4 35 113 35Z" fill="#243746"/>
<path d="M113.1 203.1C137.4 203.1 157.2 183.4 157.2 159C157.2 134.6 137.4 115 113.1 115C88.8 115 69.1 134.7 69.1 159.1C69.1 183.5 88.7 203.1 113.1 203.1Z" fill="url(#paint1_linear_434_41)"/>
<path d="M182.8 126.3V92.5C182.8 74.1 175.5 56.4 162.4 43.4C149.4 30.4 131.7 23 113.3 23C94.9 23 77.2 30.3 64.2 43.4C51.2 56.4 43.8 74.1 43.8 92.5V126.3C43.8 134.1 41.6 141.7 37.5 148.2C33.4 154.8 27.4 160 20.4 163.4C18.8 164.2 17.4 165.4 16.5 166.9C15.6 168.4 15 170.2 15.1 171.9V172.1C15.1 172.7 15.2 173.4 15.5 174C15.7 174.6 16.1 175.1 16.6 175.6C17.1 176.1 17.6 176.4 18.2 176.7C18.8 176.9 19.4 177.1 20.1 177.1H206.8C207.4 177.1 208.1 177 208.7 176.7C209.3 176.4 209.8 176.1 210.3 175.6C210.8 175.1 211.1 174.6 211.4 174C211.6 173.4 211.8 172.8 211.8 172.1V171.9C211.8 170.1 211.3 168.4 210.3 166.9C209.4 165.4 208 164.2 206.4 163.4C199.4 160 193.5 154.8 189.3 148.2C185 141.7 182.8 134.1 182.8 126.3Z" fill="#607483"/>
<path fill-rule="evenodd" clip-rule="evenodd" d="M212 177H15V171H212V177Z" fill="#243746"/>
<path d="M169.1 87C184.6 87 197.1 74.5 197.1 59C197.1 43.5 184.6 31 169.1 31C153.6 31 141.1 43.5 141.1 59C141.1 74.5 153.6 87 169.1 87Z" fill="white"/>
<path fill-rule="evenodd" clip-rule="evenodd" d="M174.063 50.6271C169.263 54.9271 164.463 59.2271 159.863 63.6271C158.863 64.6271 158.863 66.1271 159.763 67.1271C160.763 68.1271 162.263 68.1271 163.263 67.2271C167.863 62.8271 172.663 58.5271 177.363 54.2271C178.363 53.3271 178.463 51.7271 177.563 50.7271C176.663 49.8271 175.063 49.7271 174.063 50.6271Z" fill="#243746"/>
<path fill-rule="evenodd" clip-rule="evenodd" d="M163.317 50.6271C168.117 54.9271 172.817 59.2271 177.417 63.6271C178.417 64.6271 178.417 66.1271 177.517 67.1271C176.517 68.1271 175.017 68.1271 174.017 67.2271C169.417 62.8271 164.717 58.5271 159.917 54.2271C158.917 53.3271 158.817 51.7271 159.717 50.7271C160.717 49.8271 162.317 49.7271 163.317 50.6271Z" fill="#243746"/>
<defs>
<linearGradient id="paint0_linear_434_41" x1="113.118" y1="-37.1212" x2="115.454" y2="363.23" gradientUnits="userSpaceOnUse">
<stop stop-color="#F2F2F2"/>
<stop offset="1" stop-color="#EFEFEF"/>
</linearGradient>
<linearGradient id="paint1_linear_434_41" x1="64.6346" y1="120.316" x2="153.37" y2="191.307" gradientUnits="userSpaceOnUse">
<stop stop-color="#607483"/>
<stop offset="1" stop-color="#243746"/>
</linearGradient>
</defs>
</svg>
