<svg xmlns="http://www.w3.org/2000/svg" width="227.147" height="227.286" viewBox="0 0 227.147 227.286">
  <g id="Add_meal_picture" data-name="Add meal picture" transform="translate(2.5 2.5)">
    <path id="Path_90" data-name="Path 90" d="M1747.425,425.949A117.189,117.189,0,0,0,1642.472,360.5h-1.961v12a105.083,105.083,0,0,0-103.151,103.46,13.751,13.751,0,0,0-.07,1.724,105.161,105.161,0,0,0,103.3,105.024,14.73,14.73,0,0,0,1.882.08,105.266,105.266,0,0,0,104.952-99.7v-7.13h11.988A114.2,114.2,0,0,0,1747.425,425.949Zm-43.662,51.73c0,33.78-30.227,60.913-62,60.856-32.666-.354-60.624-27.7-60.624-60.856a12.7,12.7,0,0,1,.076-1.724,61.168,61.168,0,0,1,59.336-59.493V403.22h3.842a74.639,74.639,0,0,1,72.422,72.419l-13.093.079Z" transform="translate(-1537.286 -360.5)" fill="none" stroke="#ffcd00" stroke-width="5"/>
  </g>
</svg>
