<svg xmlns="http://www.w3.org/2000/svg" width="99.999" height="24.231" viewBox="0 0 99.999 24.231">
  <g id="Portion_-_Logo-_for_screen_-_Color_on_white" data-name="Portion - Logo- for screen - Color on white" transform="translate(-290.36 -293.37)">
    <rect id="Rectangle_42" data-name="Rectangle 42" width="3.127" height="13.56" transform="translate(349.726 299.366)" fill="#fff"/>
    <path id="Path_12" data-name="Path 12" d="M1413.621,298.331a1.96,1.96,0,1,1-1.959-1.961A1.96,1.96,0,0,1,1413.621,298.331Z" transform="translate(-1060.371 -2.842)" fill="#fff"/>
    <path id="Path_13" data-name="Path 13" d="M297.983,378.41c-4.559,0-7.623,3.441-7.623,8.563v11.188h3.189l-.022-6.221a7.078,7.078,0,0,0,4.45,1.767h.006a7.648,7.648,0,0,0,0-15.3Zm0,12.108a4.409,4.409,0,0,1-4.457-4.457,4.457,4.457,0,1,1,4.457,4.457Z" transform="translate(0 -80.56)" fill="#fff"/>
    <path id="Path_14" data-name="Path 14" d="M641.259,378.47a7.648,7.648,0,1,0,7.646,7.651A7.659,7.659,0,0,0,641.259,378.47Zm0,12.108a4.458,4.458,0,1,1,4.457-4.457A4.458,4.458,0,0,1,641.259,390.578Z" transform="translate(-325.167 -80.617)" fill="#fff"/>
    <path id="Path_15" data-name="Path 15" d="M1913.1,382.334a7.637,7.637,0,0,0-14.522,3.315V393.1h3.188v-7.446a4.42,4.42,0,0,1,2.5-4.019,4.478,4.478,0,0,1,5.086.863,4.369,4.369,0,0,1,.957,1.419,4.45,4.45,0,0,1,.349,1.738V393.1h3.192v-7.446A7.571,7.571,0,0,0,1913.1,382.334Z" transform="translate(-1523.496 -80.172)" fill="#fff"/>
    <path id="Path_16" data-name="Path 16" d="M1191.988,305.817a4.466,4.466,0,0,1-.04-.579v-4.32h4.32v-2.749h-4.32v-4.8h-3.119l0,11.869a6.943,6.943,0,0,0,.053.887,7.652,7.652,0,0,0,7.4,6.8c.229,0,.453-.011.676-.028v-3.142a4.319,4.319,0,0,1-.676.053A4.554,4.554,0,0,1,1191.988,305.817Z" transform="translate(-851.137)" fill="#fff"/>
    <path id="Path_17" data-name="Path 17" d="M985.013,377h0a7.665,7.665,0,0,0-7.663,7.649v7.5h3.186l0-7.583a4.415,4.415,0,0,1,4.478-4.489v0h0a4.383,4.383,0,0,1,.676.053v-3.1C985.466,377.013,985.242,377,985.013,377Z" transform="translate(-650.798 -79.224)" fill="#fff"/>
    <path id="Path_18" data-name="Path 18" d="M1552.643,365.283a8.564,8.564,0,0,0-7.67-4.783h-.143v.877a7.68,7.68,0,0,0-7.539,7.561,1.058,1.058,0,0,0-.005.126,7.685,7.685,0,0,0,7.549,7.675,1.085,1.085,0,0,0,.137.006,7.693,7.693,0,0,0,7.67-7.286v-.521h.876A8.348,8.348,0,0,0,1552.643,365.283Zm-3.191,3.78a4.6,4.6,0,0,1-4.531,4.447,4.517,4.517,0,0,1-4.43-4.447.923.923,0,0,1,.006-.126,4.47,4.47,0,0,1,4.336-4.348v-.968h.281a5.455,5.455,0,0,1,5.293,5.292l-.957.006Z" transform="translate(-1181.235 -63.593)" fill="#ffcd00"/>
  </g>
</svg>
